<svg data-testid="ArrowDownIcon" aria-hidden="true" class="SvgIcon__Icon-sc-9dg20d-0 SvgIcon-sc-9dg20d-1 cxStEi gjIExv OrderBy-styled__ArrowDownIcon-sc-391d4b6d-4 errHru" version="1.1" xmlns="http://www.w3.org/2000/svg" xmlns:xlink="http://www.w3.org/1999/xlink" fill="currentColor" viewBox="0 0 24 24" width="24"  height="24" ><path fill-rule="evenodd" clip-rule="evenodd" d="M11.9973 16C11.7467 15.9993 11.5178 15.9065 11.3427 15.7537L4.35642 9.76541C4.13848 9.58197 4 9.30716 4 9C4 8.44772 4.44772 8 5 8C5.24854 8 5.47591 8.09067 5.65082 8.24075L5.65083 8.24074L12 13.6829L18.3427 8.24631C18.5185 8.09292 18.7484 8 19 8C19.5523 8 20 8.44772 20 9C20 9.30374 19.8646 9.57586 19.6508 9.75926L12.6508 15.7593L12.6437 15.7653C12.4711 15.9106 12.2488 15.9986 12.0059 16L12 16L11.9973 16Z" fill="#111111"></path></svg>