<svg data-testid="ArrowTopIcon" role="img" version="1.1" xmlns="http://www.w3.org/2000/svg" xmlns:xlink="http://www.w3.org/1999/xlink" fill="currentColor" viewBox="0 0 24 24" class="SvgIcon__Icon-sc-9dg20d-0 SvgIcon-sc-9dg20d-1 cxStEi gjIExv" width="24"  height="24" ><path fill-rule="evenodd" clip-rule="evenodd" d="M11.9973 8C11.7467 8.00067 11.5178 8.09348 11.3427 8.24635L4.35642 14.2346C4.13848 14.418 4 14.6928 4 15C4 15.5523 4.44772 16 5 16C5.24854 16 5.47591 15.9093 5.65082 15.7593L5.65083 15.7593L12 10.3171L18.3427 15.7537C18.5185 15.9071 18.7484 16 19 16C19.5523 16 20 15.5523 20 15C20 14.6963 19.8646 14.4241 19.6508 14.2407L12.6508 8.24074L12.6437 8.23466C12.4711 8.0894 12.2488 8.00142 12.0059 8.00002L12 8L11.9973 8Z"></path><title>Fechar filtro de cores</title></svg>