<svg data-testid="FilterIcon" role="img" version="1.1" xmlns="http://www.w3.org/2000/svg" xmlns:xlink="http://www.w3.org/1999/xlink" fill="currentColor" viewBox="0 0 24 24" class="SvgIcon__Icon-sc-9dg20d-0 SvgIcon-sc-9dg20d-1 cxStEi gjIExv" width="24"  height="24" ><path fill-rule="evenodd" clip-rule="evenodd" d="M4 15C4 14.4477 4.44772 14 5 14L19 14C19.5523 14 20 14.4477 20 15C20 15.5523 19.5523 16 19 16L5 16C4.44772 16 4 15.5523 4 15Z" fill="#111111"></path><path fill-rule="evenodd" clip-rule="evenodd" d="M4 8C4 7.44772 4.44772 7 5 7L19 7C19.5523 7 20 7.44772 20 8C20 8.55228 19.5523 9 19 9L5 9C4.44772 9 4 8.55228 4 8Z" fill="#111111"></path><path fill-rule="evenodd" clip-rule="evenodd" d="M9 11C8.44772 11 8 10.5523 8 10L8 6C8 5.44772 8.44772 5 9 5C9.55228 5 10 5.44772 10 6L10 10C10 10.5523 9.55228 11 9 11Z" fill="#111111"></path><path fill-rule="evenodd" clip-rule="evenodd" d="M15 18C14.4477 18 14 17.5523 14 17L14 13C14 12.4477 14.4477 12 15 12C15.5523 12 16 12.4477 16 13L16 17C16 17.5523 15.5523 18 15 18Z" fill="#111111"></path><title fill="#111111">Filtros</title></svg>